<svg width="2933" height="1533" viewBox="0 0 2933 1533" fill="none" xmlns="http://www.w3.org/2000/svg">
<path d="M2915.05 1237.59L2925 1241.03V1230.5V572.5V567.341L2920.18 565.496L1482.68 14.996L1472.5 11.0967V22V733.5V738.843L1477.55 740.588L2915.05 1237.59Z" fill="white" stroke="black" stroke-width="15"/>
<path d="M1450.04 14.9163L1460 11.4506V22V737V742.355L1454.94 744.094L17.4353 1237.59L7.5 1241V1230.5V522V516.668L12.5361 514.916L1450.04 14.9163Z" fill="white" stroke="black" stroke-width="15"/>
<path d="M1450.04 815.916L1460 812.451V823V1016V1021.35L1454.94 1023.09L17.4441 1518.59L7.5 1522.02V1511.5V1323V1317.67L12.5361 1315.92L1450.04 815.916Z" fill="white" stroke="black" stroke-width="15"/>
<path d="M2915.04 1518.58L2925 1522.05V1511.5V1318.5V1313.15L2919.94 1311.41L1482.44 815.909L1472.5 812.482V823V1011.5V1016.83L1477.54 1018.58L2915.04 1518.58Z" fill="white" stroke="black" stroke-width="15"/>
<path d="M1445 24.5L1465.5 18L1467 732.5L1452 737.5L1445 24.5Z" fill="white"/>
<path d="M1485 23.5L1465.5 18L1467 732.5L1486 735.5L1485 23.5Z" fill="white"/>
<path d="M1452 823L1466.5 819.5L1488 825.5L1490.5 1015L1471 1009.5L1452 1016V823Z" fill="white"/>
</svg>
