<svg width="2943" height="1548" viewBox="0 0 2943 1548" fill="none" xmlns="http://www.w3.org/2000/svg">
<path d="M2919.23 1247.95L2932.5 1252.54V1238.5V580.5V573.621L2926.08 571.161L1488.58 20.6614L1475 15.4623V30V741.5V748.623L1481.73 750.951L2919.23 1247.95Z" fill="white" stroke="black" stroke-width="20"/>
<path d="M1454.21 20.555L1467.5 15.9341V30V745V752.14L1460.75 754.458L23.2471 1247.96L10 1252.51V1238.5V530V522.891L16.7148 520.555L1454.21 20.555Z" fill="white" stroke="black" stroke-width="20"/>
<path d="M1454.21 821.555L1467.5 816.934V831V1024V1031.13L1460.76 1033.45L23.2588 1528.95L10 1533.52V1519.5V1331V1323.89L16.7148 1321.56L1454.21 821.555Z" fill="white" stroke="black" stroke-width="20"/>
<path d="M2919.21 1528.94L2932.5 1533.57V1519.5V1326.5V1319.37L2925.76 1317.05L1488.26 821.546L1475 816.976V831V1019.5V1026.61L1481.71 1028.94L2919.21 1528.94Z" fill="white" stroke="black" stroke-width="20"/>
<path d="M1450 32.5L1470.5 26L1472 740.5L1457 745.5L1450 32.5Z" fill="white"/>
<path d="M1490 31.5L1470.5 26L1472 740.5L1491 743.5L1490 31.5Z" fill="white"/>
<path d="M1457 831L1471.5 827.5L1493 833.5L1495.5 1023L1476 1017.5L1457 1024V831Z" fill="white"/>
</svg>
